<?xml version="1.0" encoding="UTF-8" standalone="no"?>
<svg
   xmlns:dc="http://purl.org/dc/elements/1.1/"
   xmlns:cc="http://creativecommons.org/ns#"
   xmlns:rdf="http://www.w3.org/1999/02/22-rdf-syntax-ns#"
   xmlns:svg="http://www.w3.org/2000/svg"
   xmlns="http://www.w3.org/2000/svg"
   viewBox="0 0 2730.48 2730.48"
   height="2730.48"
   width="2730.48"
   xml:space="preserve"
   id="svg2"
   version="1.1"><metadata
     id="metadata8"><rdf:RDF><cc:Work
         rdf:about=""><dc:format>image/svg+xml</dc:format><dc:type
           rdf:resource="http://purl.org/dc/dcmitype/StillImage" /></cc:Work></rdf:RDF></metadata><defs
     id="defs6" /><g
     transform="matrix(1.3333333,0,0,-1.3333333,0,2730.48)"
     id="g10"><g
       transform="scale(0.1)"
       id="g12"><g
         transform="scale(1.25636)"
         id="g14"><path
           id="path16"
           style="fill:#;fill-opacity:0;fill-rule:nonzero;stroke:none"
           d="M 16300,0 H 0 V 16300 H 16300 V 0" /></g><g
         transform="scale(1.11709)"
         id="g18"><path
           id="path20"
           style="fill:#dd9d25;fill-opacity:1;fill-rule:nonzero;stroke:none"
           d="M 15340.8,3784.4 H 2991.32 c -529.75,0 -959.18,429.42 -959.18,959.19 v 8845.01 c 0,529.7 429.43,959.2 959.18,959.2 H 15340.8 c 529.8,0 959.2,-429.5 959.2,-959.2 V 4743.59 c 0,-529.77 -429.4,-959.19 -959.2,-959.19" /></g><path
         id="path22"
         style="fill:#e8a732;fill-opacity:1;fill-rule:nonzero;stroke:none"
         d="M 12779,8174 H 7699.59 c -109.39,0 -198.07,88.7 -198.07,198.1 v 3734.6 c 0,109.4 88.68,198.1 198.07,198.1 H 12779 c 109.4,0 198.1,-88.7 198.1,-198.1 V 8372.1 c 0,-109.4 -88.7,-198.1 -198.1,-198.1" /><g
         transform="scale(1.11709)"
         id="g24"><path
           id="path26"
           style="fill:#bf7f27;fill-opacity:1;fill-rule:nonzero;stroke:none"
           d="M 8898.81,7584.74 H 6982.72 v 3163.06 h 1916.09 534.58 1916.01 V 7584.74 H 9433.39 Z M 16300,12470.5 v 534.6 h -3249.2 l -1551.4,-1726.8 c -19.4,2.6 -39.6,4 -59.7,4 H 9433.39 v 3265.4 H 8898.81 V 11282.3 H 6892.53 c -20.17,0 -40.34,-1.4 -59.76,-4 -0.04,0 -0.06,0 -0.09,0 L 5281.37,13005.1 H 2032.14 v -534.6 h 3010.84 l 1409.59,-1569.1 c -0.01,0 -0.01,0 -0.01,0 -3.31,-20.9 -4.77,-42.2 -4.77,-63.8 V 9433.38 H 2032.14 v -534.6 H 6447.79 V 7494.59 c 0,-21.66 1.46,-42.97 4.77,-63.83 0,0 0.01,0 0.01,-0.09 L 5042.98,5861.77 H 2032.14 v -534.69 h 3249.23 l 1551.3,1726.81 c 0.03,0 0.06,0 0.1,0 19.42,-2.6 39.59,-4.12 59.76,-4.12 H 8898.81 V 3784.49 h 534.58 v 3265.28 h 2006.31 c 20.1,0 40.3,1.52 59.7,4.03 L 13050.8,5327.08 H 16300 v 534.69 h -3010.8 l -1409.5,1568.72 c 3.2,20.86 4.7,42.44 4.7,64.1 V 8898.78 H 16300 v 534.6 h -4415.6 v 1404.22 c 0,21.6 -1.5,43.2 -4.7,64 l 1409.5,1568.9 H 16300" /></g></g></g></svg>